<svg id="incubator" xmlns="http://www.w3.org/2000/svg" viewBox="0 0 106.42 144.87"><defs><style>.cls-1{fill:#fff;}.cls-2{fill:#cb251b;}.cls-3{fill:#164f4f;}.cls-4{fill:#1d8a87;}.cls-5{fill:#cd2c22;}.cls-6{fill:#cd2920;}.cls-7{fill:#cc281e;}.cls-8{fill:#155050;}</style></defs><title>ided-incubator-logo</title><rect class="cls-1" x="3.32" y="34.76" width="15.04" height="41.62"/><path class="cls-2" d="M30,.16c.5.4,1.13.27,1.7.43A11.18,11.18,0,0,1,39.86,13c-.58,5.18-5.25,9.3-10.83,9.56a11.18,11.18,0,0,1-2-22.23c.19,0,.4,0,.52-.21Z" transform="translate(-17.59 -0.16)"/><path class="cls-3" d="M40.05,34c.48-1.64,1.23-2.3,2.9-2.3,11.19,0,22.4-.28,33.58.08a48.24,48.24,0,0,1,36.75,17.87A45.25,45.25,0,0,1,123.61,73.7c1.6,13.24-1.55,25.24-9.91,35.68-8.16,10.2-18.94,15.9-31.81,17.75a53.15,53.15,0,0,1-7.77.47H43.17c-2,0-2.7-.42-3.11-1.91a19.12,19.12,0,0,1-.2-3.93q0-42.7,0-85.41A11.05,11.05,0,0,1,40.05,34ZM65,79.63q0,11.87,0,23.74c0,.58-.19,1.17.82,1.17a75.72,75.72,0,0,0,12.68-.68c13.53-2.3,22.8-14.08,20.29-28.6A24.38,24.38,0,0,0,78.5,55.32c-4.13-.73-8.3-.31-12.44-.47-1,0-1.11.29-1.1,1.15C65,63.88,65,71.75,65,79.63Z" transform="translate(-17.59 -0.16)"/><path class="cls-4" d="M40.05,34a11.05,11.05,0,0,0-.2,2.37q0,42.71,0,85.41a19.12,19.12,0,0,0,.2,3.93c-.65,1.53-1.83,2-3.44,1.94-5.36-.06-10.72,0-16.07,0-2.1,0-2.82-.69-2.93-2.75,0-.4,0-.8,0-1.2V35.59c0-.36,0-.72,0-1.08.13-1.88,1-2.75,2.88-2.79,1.68,0,3.36,0,5,0,3.52,0,7,.05,10.56,0A3.85,3.85,0,0,1,40.05,34ZM28.49,46.48c2,0,4.08,0,6.12,0,.86,0,1.11-.29,1.09-1.11,0-2,0-3.92,0-5.88a4.21,4.21,0,0,0-2.43-4.08,4.15,4.15,0,0,0-4.7.51,1,1,0,0,1-1.24.12,4.08,4.08,0,0,0-6,3.52c-.06,2,0,3.92,0,5.88,0,.78.25,1,1,1C24.41,46.45,26.45,46.48,28.49,46.48Zm0,64.32h6.23c.45,0,.87,0,1-.57.65-2.25-.08-3.26-2.42-3.26a.48.48,0,0,1-.12,0c-1.1-.1-2.52.5-3.21-.26s-.15-2.14-.22-3.24a1.92,1.92,0,0,0,0-.24c-.06-.62.2-.87.83-.85.92,0,1.84,0,2.75,0,2.69,0,2.35.31,2.43-2.46,0-1-.31-1.4-1.37-1.38-3.72,0-7.43,0-11.15,0-1.89,0-1.89,0-1.9,1.89s0,1.93,2,1.93h.84c2.22,0,2.22,0,2.22,2.2,0,2.38,0,2.37-2.4,2.39-2.95,0-2.6-.45-2.65,2.71,0,.82.3,1.14,1.13,1.12C24.46,110.78,26.46,110.8,28.46,110.8Zm.07-34.27h4.56c2.81,0,2.79,0,2.61-2.8-.05-.68-.31-.9-1-.89-1.4,0-2.8,0-4.2,0-.53,0-.81-.1-.79-.72q.06-1.68,0-3.36c0-.63.27-.72.79-.7.84,0,1.68,0,2.52,0,2.8,0,2.8,0,2.62-2.78v-.12c0-.57-.25-.75-.8-.75q-6.36,0-12.72,0c-.64,0-.79.27-.82.87-.14,2.79-.16,2.79,2.61,2.79h.12c2.3,0,2.3,0,2.3,2.31s0,2.42-2.42,2.46c-3,0-2.53-.57-2.61,2.69,0,.85.34,1,1.07,1C24.45,76.51,26.49,76.53,28.53,76.53ZM26.16,61.35c1.24,0,2.48,0,3.72,0,3.55-.08,5.54-2,5.79-5.53a8.32,8.32,0,0,0-.3-2.85,4.83,4.83,0,0,0-4.29-3.62,61.45,61.45,0,0,0-7.18-.13c-3,0-2.48-.45-2.57,2.63,0,.94.36,1.13,1.2,1.12,2.4,0,4.8,0,7.2,0,1.71,0,2.68.91,2.66,2.39s-.92,2.23-2.65,2.25c-1.92,0-3.84,0-5.76,0-3.06,0-2.59-.58-2.63,2.78v.12c-.05.63.25.86.86.85C23.52,61.33,24.84,61.35,26.16,61.35Zm2.38,34.1c2,0,3.92,0,5.87,0,1.08,0,1.38-.37,1.36-1.39-.06-2.36,0-4.72,0-7.08,0-2.09-.07-2.11-2.15-2.13-1,0-1.26.35-1.22,1.28,0,1.55,0,3.11,0,4.67,0,.92-.39,1.06-1.15,1s-1.37.09-1.29-1a23.41,23.41,0,0,0,0-3.35c-.09-1.36-1.2-.81-1.94-.92s-.95.31-.93,1c0,1.16,0,2.32,0,3.48s-.82.74-1.41.79-1,0-1-.81c0-1.4,0-2.8,0-4.2,0-1.69,0-1.69-1.73-1.69-.16,0-.32,0-.48,0-.8-.08-1.17.23-1.16,1.08,0,2.76,0,5.52,0,8.27,0,.73.23,1,1,1C24.38,95.42,26.46,95.45,28.54,95.45Zm1.57,25.19h3.35c2.51,0,2.25.26,2.3-2.34,0-1.07-.36-1.52-1.46-1.5-2.68,0-5.35,0-8,0-1.56,0-1.56,0-1.56-1.54,0-2.09,0-2.09-2.06-2.08-.2,0-.4,0-.6,0-.52,0-.7.26-.7.74,0,3.19,0,6.39,0,9.58,0,.49.19.69.7.75,2.46.3,2.65.14,2.66-2.32a2.16,2.16,0,0,0,0-.36c-.09-.75.25-1,1-1C27.15,120.67,28.63,120.64,30.11,120.64Z" transform="translate(-17.59 -0.16)"/><path class="cls-5" d="M51.8,136.94c2.71-1,4.82-.3,5.75,1.94a4.42,4.42,0,0,1-2.25,5.83,3,3,0,0,1-3-.19c-.37-.25-.54-.36-.93.08s-1.21.32-1.79.15-.35-.74-.35-1.16c0-2.75,0-5.5,0-8.26,0-1,.36-1.26,1.33-1.28s1.34.39,1.25,1.34A13.3,13.3,0,0,0,51.8,136.94Zm3.68,3.79a1.89,1.89,0,0,0-1.82-2.08,2.07,2.07,0,0,0-2,2.07,2,2,0,0,0,2,2A1.8,1.8,0,0,0,55.48,140.73Z" transform="translate(-17.59 -0.16)"/><path class="cls-6" d="M65.45,137.4c.31-.42.43-.93,1.13-.91s1.15.23,1.13,1.09c0,2,0,4,0,6,0,.41.2,1-.32,1.17a1.8,1.8,0,0,1-1.81-.13c-.26-.23-.34-.45-.73-.19-1.58,1.06-3.06.63-4.4-.45a4.11,4.11,0,0,1-1.31-4.56,4,4,0,0,1,3.51-3A3.21,3.21,0,0,1,65.45,137.4Zm-2.3,5.32a2,2,0,0,0,2.06-2,2.1,2.1,0,0,0-2-2.07,1.94,1.94,0,0,0-1.88,2A1.87,1.87,0,0,0,63.15,142.72Z" transform="translate(-17.59 -0.16)"/><path class="cls-5" d="M22.4,140.58c0-1,0-2,0-3,0-.42-.11-1,.5-1s1.22-.33,1.48.37.39.33.7.12a3.15,3.15,0,0,1,3.39-.34,3.25,3.25,0,0,1,1.77,3.05c0,1.35,0,2.72,0,4.07.06,1.07-.54,1-1.28,1s-1.25,0-1.18-1c.08-1.15,0-2.31,0-3.47,0-1-.72-1.76-1.51-1.64A1.49,1.49,0,0,0,25,140.41c0,1,0,2.08,0,3.11s-.22,1.36-1.26,1.34-1.41-.23-1.33-1.28S22.4,141.58,22.4,140.58Z" transform="translate(-17.59 -0.16)"/><path class="cls-5" d="M47.74,140.73c0,1,0,2,0,3,0,.46.15,1.06-.55,1.12-.52,0-1.2.29-1.45-.44s-.39-.31-.7-.1c-2.39,1.59-5,.36-5.15-2.52-.1-1.47,0-2.95,0-4.42,0-1.08.74-.8,1.33-.85s1.18,0,1.13.9c-.06,1.11,0,2.23,0,3.35,0,1,.25,1.79,1.37,1.89.95.08,1.49-.63,1.5-1.85s0-2.23,0-3.35.71-.91,1.38-.94,1.26,0,1.21,1S47.74,139.65,47.74,140.73Z" transform="translate(-17.59 -0.16)"/><path class="cls-6" d="M74.38,140.69a4.27,4.27,0,1,1,8.54,0,4.27,4.27,0,1,1-8.54,0Zm2.4,0a1.85,1.85,0,0,0,1.83,2.07,1.81,1.81,0,0,0,1.84-1.93,1.85,1.85,0,1,0-3.67-.14Z" transform="translate(-17.59 -0.16)"/><path class="cls-6" d="M31.6,141.24c0-3.86,3.43-5.91,6.21-4.38.53.29,1,.61.54,1.29-.36.5-.51,1.37-1.5.79a1.72,1.72,0,0,0-2.45.44,2.1,2.1,0,0,0,0,2.58,1.78,1.78,0,0,0,2.55.44c1.09-.58,1.15.52,1.54,1,.51.62-.17.81-.54,1a4,4,0,0,1-4.21,0A3.91,3.91,0,0,1,31.6,141.24Z" transform="translate(-17.59 -0.16)"/><path class="cls-7" d="M70.93,144.85c-.87.17-1.17-.25-1.11-1.2.07-1.15,0-2.32,0-3.47,0-.62.24-1.28-.84-1.44-.65-.09-.26-1-.34-1.48s.11-.74.57-.72.68-.31.61-.75c-.13-.81.41-1,1-1.21,1.42-.49,1.46-.49,1.46,1,0,.59,0,1,.8,1s.6.62.57,1.07.25,1.21-.54,1.2-.84.47-.83,1.06c0,1.24,0,2.48,0,3.71S72.29,144.85,70.93,144.85Z" transform="translate(-17.59 -0.16)"/><path class="cls-7" d="M86.32,137.46c1.52-1.3,2.67-1.35,3.93-.39.76.58.25,1,0,1.51s-.54.79-1.21.44c-1.46-.78-2.35-.2-2.37,1.47,0,1.12-.06,2.24,0,3.35s-.53,1-1.27,1-1.26-.11-1.22-1.09c.06-1.91,0-3.83,0-5.74,0-.52-.38-1.3.5-1.5C85.45,136.39,86.2,136.41,86.32,137.46Z" transform="translate(-17.59 -0.16)"/><path class="cls-7" d="M20.91,140.69c0,1.08,0,2.15,0,3.23s-.75.88-1.4.92-1.14-.05-1.12-.93c.05-2.15.05-4.31,0-6.46,0-.88.43-1,1.12-.94s1.43-.14,1.39,1S20.91,139.61,20.91,140.69Z" transform="translate(-17.59 -0.16)"/><path class="cls-2" d="M19.53,135.54c-1.07.25-1.08-.4-1.14-1.22-.09-1.15.6-1,1.34-1.07s1.19.2,1.21,1.13C21,135.49,20.45,135.69,19.53,135.54Z" transform="translate(-17.59 -0.16)"/><path class="cls-8" d="M28.46,110.8c-2,0-4,0-6,0-.83,0-1.14-.3-1.13-1.12C21.39,106.53,21,107,24,107c2.4,0,2.4,0,2.4-2.39,0-2.2,0-2.2-2.22-2.2h-.84c-2,0-2,0-2-1.93s0-1.89,1.9-1.89c3.72,0,7.43,0,11.15,0,1.06,0,1.39.34,1.37,1.38-.08,2.77.26,2.44-2.43,2.46-.91,0-1.83,0-2.75,0-.63,0-.89.23-.83.85a1.92,1.92,0,0,1,0,.24c.07,1.1-.46,2.51.22,3.24s2.11.16,3.21.26a.48.48,0,0,0,.12,0c2.34,0,3.07,1,2.42,3.26-.17.58-.59.57-1,.57H28.46Z" transform="translate(-17.59 -0.16)"/><path class="cls-8" d="M28.54,95.45c-2.08,0-4.16,0-6.23,0-.74,0-1-.25-1-1,0-2.75,0-5.51,0-8.27,0-.85.36-1.16,1.16-1.08.16,0,.32,0,.48,0,1.73,0,1.73,0,1.73,1.69,0,1.4,0,2.8,0,4.2,0,.76.39.86,1,.81s1.39.24,1.41-.79,0-2.32,0-3.48c0-.68.16-1.1.93-1s1.85-.44,1.94.92a23.41,23.41,0,0,1,0,3.35c-.08,1.09.59,1,1.29,1s1.19-.1,1.15-1c-.07-1.56,0-3.12,0-4.67,0-.93.26-1.29,1.22-1.28,2.08,0,2.15,0,2.15,2.13,0,2.36,0,4.72,0,7.08,0,1-.28,1.43-1.36,1.39C32.46,95.4,30.5,95.45,28.54,95.45Z" transform="translate(-17.59 -0.16)"/><path class="cls-8" d="M30.11,120.64c-1.48,0-3,0-4.44,0-.71,0-1.05.21-1,1a2.16,2.16,0,0,1,0,.36c0,2.46-.2,2.62-2.66,2.32-.51-.06-.7-.26-.7-.75,0-3.19,0-6.39,0-9.58,0-.48.18-.76.7-.74.2,0,.4,0,.6,0,2.06,0,2.06,0,2.06,2.08,0,1.54,0,1.54,1.56,1.54,2.68,0,5.35,0,8,0,1.1,0,1.48.43,1.46,1.5,0,2.6.21,2.33-2.3,2.34Z" transform="translate(-17.59 -0.16)"/><path class="cls-4" d="M31.42,42.77c-2.15,0-1.85.14-1.87-1.51s.5-2.5,1.67-2.48,1.51.74,1.64,2.53C33,42.71,32.39,43,31.42,42.77Z" transform="translate(-17.59 -0.16)"/><path class="cls-4" d="M26.94,41.51c-.17.34.37,1.1-.44,1.18s-1.78.41-2.11-.17a2.81,2.81,0,0,1,.09-2.62A1.2,1.2,0,0,1,26,39.34c.88.3,1,1.06.92,1.85Z" transform="translate(-17.59 -0.16)"/></svg>