<svg id="coworking" xmlns="http://www.w3.org/2000/svg" viewBox="0 0 106.45 147.79"><defs><style>.cls-1{fill:#fff;}.cls-2{fill:#154f4f;}.cls-3{fill:#1c8986;}.cls-4{fill:#cb251b;}.cls-5{fill:#cd2920;}.cls-6{fill:#cd2c22;}.cls-7{fill:#cc281e;}.cls-8{fill:#164f4f;}.cls-9{fill:#155050;}.cls-10{fill:#1d8a87;}</style></defs><title>ided-coworking-logo</title><rect class="cls-1" x="3.61" y="33.45" width="14.54" height="43.82"/><path class="cls-2" d="M255.08,256.17c.62-1.8,1.29-2.3,3.15-2.3,10.91,0,21.82-.09,32.73,0a48.54,48.54,0,0,1,47.58,40.64,13.2,13.2,0,0,0,.58,3.47v8.16c-.4.23-.25.64-.28,1a47.45,47.45,0,0,1-33.53,40.33,54.62,54.62,0,0,1-15.9,2.35c-10.31,0-20.63,0-30.94,0-2.19,0-3-.47-3.39-2.06,0-.36,0-.72,0-1.08V258C255.11,257.36,255.09,256.76,255.08,256.17Zm25,45.67c0,7.92,0,15.84,0,23.75,0,.8.15,1.1,1,1.1,3.56,0,7.11,0,10.66-.38,14.49-1.4,24.33-13.82,22.23-28.11a24.61,24.61,0,0,0-21.59-20.89c-3.71-.43-7.43-.11-11.14-.26-.91,0-1.2.19-1.2,1.16C280.08,286.09,280.06,294,280.06,301.84Z" transform="translate(-232.67 -222.39)"/><path class="cls-3" d="M255.08,256.17c0,.59,0,1.19,0,1.79v88.71c0,.36,0,.72,0,1.08-.48,1.6-1.66,2.08-3.21,2.07-5.39,0-10.79,0-16.19,0-2.12,0-2.89-.74-3-2.84,0-.44,0-.88,0-1.32V258c0-.48,0-1,0-1.44a2.53,2.53,0,0,1,2.88-2.65c5.4,0,10.79,0,16.19,0A3.37,3.37,0,0,1,255.08,256.17Zm-11.55,12.48c2,0,4,0,6,0,.91,0,1.3-.21,1.27-1.2-.08-1.92,0-3.84,0-5.76a4.39,4.39,0,0,0-7-3.68,1.19,1.19,0,0,1-1.45.15,4.1,4.1,0,0,0-5.87,3.66c0,1.92,0,3.84,0,5.76,0,.9.35,1.07,1.13,1.06C239.53,268.62,241.53,268.65,243.53,268.65Zm0,30.08c1.92,0,3.85-.06,5.76,0,1.13.05,1.55-.24,1.5-1.44-.11-2.62.24-2.21-2.23-2.27-1.2,0-2.78.52-3.48-.2s-.15-2.42-.27-3.68c-.07-.69.2-.89.87-.87,1.36,0,2.72,0,4.08,0,.4,0,.92.08,1-.46a25,25,0,0,0,0-2.87c0-.38-.41-.43-.75-.43H237.24c-.52,0-.78.18-.84.75-.31,3-.26,3,2.65,3h.12c2.26,0,2.26,0,2.26,2.23,0,2.52,0,2.49-2.47,2.53-3,0-2.47-.55-2.56,2.61,0,.89.34,1.09,1.13,1.07C239.53,298.7,241.53,298.73,243.53,298.73Zm-.05,34.3c1.56,0,3.12,0,4.68,0,3,0,2.6.54,2.64-2.83,0-.72-.3-1-1-1-1.24,0-2.49-.05-3.72,0-1,.06-1.4-.24-1.28-1.26s-.49-2.6.28-3.34,2.13-.18,3.24-.2c2.72-.07,2.47.47,2.49-2.65,0-.71-.3-1-1-1q-6.18,0-12.36,0c-.68,0-1,.22-1,1-.16,2.67-.18,2.67,2.51,2.67H239c2.42,0,2.42,0,2.42,2.36s0,2.41-2.48,2.43c-2.88,0-2.51-.43-2.57,2.67,0,.91.35,1.18,1.21,1.16C239.56,333,241.52,333,243.48,333Zm-1.73-61.65h-2.81c-2.55,0-2.5,0-2.55,2.52,0,1.07.4,1.27,1.33,1.25,2.4,0,4.8,0,7.2,0,1.65,0,2.58.93,2.54,2.38s-.94,2.21-2.56,2.22c-2,0-4,0-6,0-2.87,0-2.41-.47-2.51,2.57,0,1,.35,1.22,1.25,1.2,2.4,0,4.8,0,7.2,0,3.59,0,5.46-1.75,5.88-5.3a8.62,8.62,0,0,0-.13-2.38,4.9,4.9,0,0,0-4-4.25C244.9,271.18,243.17,271.49,241.75,271.38Zm1.85,46.3c2,0,3.92,0,5.88,0,1,0,1.35-.28,1.33-1.29-.06-2.36,0-4.72,0-7.08s0-2.23-2.3-2.23c-.88,0-1.09.32-1.07,1.12.05,1.6,0,3.2,0,4.8,0,1.15-.85.93-1.51,1s-.93-.34-.91-1c0-1,0-2.08,0-3.12.09-1.29-.77-1.12-1.58-1.14s-1.43,0-1.33,1.09,0,2.08,0,3.12-.82,1-1.49,1.06-.94-.3-.92-1c0-1.52,0-3,0-4.56,0-.9-.33-1.24-1.2-1.16a6.49,6.49,0,0,1-1.08,0c-.86-.08-1.11.34-1.1,1.14,0,2.68,0,5.36,0,8,0,.91.35,1.18,1.21,1.16C239.6,317.65,241.6,317.68,243.6,317.68Zm-7.2,23.22c0,1.48,0,3,0,4.43,0,.78.21,1.15,1.08,1.17,2.28.05,2.28.08,2.29-2.22,0-.12,0-.25,0-.36-.13-.86.28-1.09,1.09-1.07,2.47,0,5,0,7.42,0s2.53,0,2.54-2.57c0-1-.4-1.29-1.35-1.27-2.31.05-4.63,0-6.94,0-2.69,0-2.72,0-2.74-2.61,0-.91-.38-1.23-1.21-1.22a9.73,9.73,0,0,1-1.08,0c-.85-.07-1.12.34-1.1,1.14C236.43,337.87,236.4,339.38,236.4,340.9Z" transform="translate(-232.67 -222.39)"/><path class="cls-4" d="M243.82,244.73a11.17,11.17,0,1,1,11.27-11.13A11.14,11.14,0,0,1,243.82,244.73Z" transform="translate(-232.67 -222.39)"/><path class="cls-5" d="M308.61,366.14a3.57,3.57,0,0,1-4.67-.08,4.32,4.32,0,0,1-1-5,4,4,0,0,1,4.17-2.37,2.58,2.58,0,0,1,.78.27c.51.31.93,1.05,1.49,0,.17-.33.9-.21,1.35-.05s.32.6.32.94c0,2.15,0,4.31,0,6.47a3.67,3.67,0,0,1-2.29,3.49,4.83,4.83,0,0,1-4.78-.44c-.45-.29-.56-.69-.17-1.1s.44-1.17,1.25-.66a2.66,2.66,0,0,0,2.52.24A1.41,1.41,0,0,0,308.61,366.14ZM306.8,365a2.09,2.09,0,0,0,2.06-2,2.12,2.12,0,0,0-2.09-2,1.9,1.9,0,0,0-1.84,2.05A1.88,1.88,0,0,0,306.8,365Z" transform="translate(-232.67 -222.39)"/><path class="cls-6" d="M258.37,363.27c.48-1.32.92-2.54,1.39-3.76a2,2,0,0,1,2.32-.67c.31.24.16.5.06.75-.94,2.29-1.9,4.58-2.83,6.87a.94.94,0,0,1-1,.63,1,1,0,0,1-1-.64c-.31-.82-.66-1.62-1.06-2.6-.4,1-.77,1.75-1.06,2.56a.9.9,0,0,1-1,.68,1,1,0,0,1-1.09-.68c-.9-2.26-1.83-4.51-2.77-6.75-.31-.74,0-.86.66-.93,1.15-.11,1.88.14,2.11,1.44a25.47,25.47,0,0,0,1.06,3.23c.48-1.51.85-2.7,1.24-3.89a2.1,2.1,0,0,1,2.44-.66c.28.24.15.52,0,.75C256.89,361,257.61,362.05,258.37,363.27Z" transform="translate(-232.67 -222.39)"/><path class="cls-6" d="M282.46,361.54a14,14,0,0,0,1.46-1.67c.74-1.21,1.86-1.18,3-1.12.62,0,.73.29.32.73-.64.71-1.29,1.42-2,2.07-.46.43-.42.74,0,1.2.93,1.14,1.82,2.32,2.73,3.48.43.55.37.81-.4.86-1.25.09-2.37,0-3-1.36a6.71,6.71,0,0,0-.88-1.27c-.18-.24-.31-.69-.67-.55a.86.86,0,0,0-.56.85c0,.28,0,.56,0,.84,0,1.4-.68,1.88-2,1.47-.51-.16-.53-.54-.53-.95,0-3,0-6,0-9,0-1.08.76-.8,1.34-.82s1.24-.13,1.22.83C282.43,358.5,282.46,359.85,282.46,361.54Z" transform="translate(-232.67 -222.39)"/><path class="cls-7" d="M293.22,362.83v-3.11c0-.39-.07-.9.47-1s1.14-.29,1.42.26.42.45.84.19c2.41-1.48,4.83-.25,5.05,2.59.11,1.46,0,2.95.07,4.42,0,1.06-.74.8-1.34.84s-1.18,0-1.15-.92c.05-1.19,0-2.39,0-3.59a1.37,1.37,0,0,0-1.39-1.59,1.41,1.41,0,0,0-1.48,1.54c0,1.19-.06,2.4,0,3.59,0,1-.52,1-1.21,1s-1.38.05-1.31-1S293.22,363.91,293.22,362.83Z" transform="translate(-232.67 -222.39)"/><path class="cls-7" d="M271.2,362.88a4.29,4.29,0,1,1-4.24-4.29A4.32,4.32,0,0,1,271.2,362.88Zm-4.26-2a1.94,1.94,0,0,0-1.93,2,2,2,0,0,0,1.85,2.08,2,2,0,0,0,.08-4.08Z" transform="translate(-232.67 -222.39)"/><path class="cls-7" d="M245.53,358.59a4.34,4.34,0,0,1,4.31,4.25,4.39,4.39,0,0,1-4.3,4.4,4.33,4.33,0,0,1,0-8.65Zm1.83,4.3a1.88,1.88,0,0,0-1.89-2,2,2,0,0,0,.06,4.08A1.9,1.9,0,0,0,247.36,362.89Z" transform="translate(-232.67 -222.39)"/><path class="cls-5" d="M233.2,362.83a4.15,4.15,0,0,1,2.34-3.75,4,4,0,0,1,4,.07c.5.29.88.6.42,1.21s-.45,1.4-1.46.81a1.75,1.75,0,0,0-2.47.42,2.09,2.09,0,0,0-.06,2.57,1.76,1.76,0,0,0,2.54.48c1.07-.59,1.15.46,1.54.95s-.14.85-.51,1.06a4,4,0,0,1-4.11.05A4.23,4.23,0,0,1,233.2,362.83Z" transform="translate(-232.67 -222.39)"/><path class="cls-6" d="M274.69,359.61c1.52-1.24,2.66-1.28,3.92-.25.62.51.25.89,0,1.33s-.46.92-1.18.61c-1.77-.76-2.42-.32-2.42,1.58,0,1-.05,2.07,0,3.11s-.36,1.15-1.21,1.13-1.4,0-1.36-1.1c.06-1.95,0-3.9,0-5.86,0-.5-.27-1.17.53-1.39S274.2,358.81,274.69,359.61Z" transform="translate(-232.67 -222.39)"/><path class="cls-7" d="M289.19,362.89c0-1.08,0-2.16,0-3.23,0-.81.39-1,1.05-.9s1.48-.3,1.49.83c0,2.24,0,4.48,0,6.72,0,1.07-.84.72-1.41.76s-1.14.05-1.11-.82C289.21,365.13,289.19,364,289.19,362.89Z" transform="translate(-232.67 -222.39)"/><path class="cls-7" d="M290.51,355.5c.9-.16,1.22.19,1.23,1.15,0,1.13-.58,1.13-1.42,1.18-1,.06-1.12-.43-1.16-1.27C289.1,355.44,289.7,355.42,290.51,355.5Z" transform="translate(-232.67 -222.39)"/><path class="cls-8" d="M243.48,333c-2,0-3.92,0-5.88,0-.86,0-1.23-.25-1.21-1.16.06-3.1-.31-2.65,2.57-2.67,2.48,0,2.48,0,2.48-2.43s0-2.36-2.42-2.36h-.12c-2.69,0-2.67,0-2.51-2.67,0-.74.36-1,1-1q6.18,0,12.36,0c.71,0,1,.28,1,1,0,3.12.23,2.58-2.49,2.65-1.11,0-2.54-.49-3.24.2s-.14,2.2-.28,3.34.3,1.32,1.28,1.26c1.23-.08,2.48,0,3.72,0,.71,0,1,.28,1,1,0,3.37.33,2.79-2.64,2.83C246.6,333.05,245,333,243.48,333Z" transform="translate(-232.67 -222.39)"/><path class="cls-8" d="M243.6,317.68c-2,0-4,0-6,0-.86,0-1.23-.25-1.21-1.16,0-2.68,0-5.36,0-8,0-.8.24-1.22,1.1-1.14a6.49,6.49,0,0,0,1.08,0c.87-.08,1.23.26,1.2,1.16-.05,1.52,0,3,0,4.56,0,.69.15,1.1.92,1s1.53.07,1.49-1.06.07-2.09,0-3.12.55-1.12,1.33-1.09,1.67-.15,1.58,1.14c-.06,1,0,2.08,0,3.12,0,.67.12,1.13.91,1s1.53.11,1.51-1c0-1.6,0-3.2,0-4.8,0-.8.19-1.12,1.07-1.12,2.3,0,2.3,0,2.3,2.23s0,4.72,0,7.08c0,1-.35,1.32-1.33,1.29C247.52,317.64,245.56,317.68,243.6,317.68Z" transform="translate(-232.67 -222.39)"/><path class="cls-9" d="M236.4,340.9c0-1.52,0-3,0-4.55,0-.8.25-1.21,1.1-1.14a9.73,9.73,0,0,0,1.08,0c.83,0,1.2.31,1.21,1.22,0,2.61.05,2.61,2.74,2.61,2.31,0,4.63,0,6.94,0,.95,0,1.36.24,1.35,1.27,0,2.57,0,2.57-2.54,2.57s-5,0-7.42,0c-.81,0-1.22.21-1.09,1.07,0,.11,0,.24,0,.36,0,2.3,0,2.27-2.29,2.22-.87,0-1.1-.39-1.08-1.17C236.43,343.85,236.4,342.38,236.4,340.9Z" transform="translate(-232.67 -222.39)"/><path class="cls-10" d="M246.15,264.86c-1.19.33-1.62-.13-1.53-1.43.11-1.74.53-2.48,1.7-2.46s1.43.73,1.59,2.55C248.05,265.05,247.24,265,246.15,264.86Z" transform="translate(-232.67 -222.39)"/><path class="cls-10" d="M240.59,264.86c-1.1.32-1.4-.16-1.33-1.26.09-1.52.44-2.14,1.46-2.11s1.28.64,1.41,2.19C242.24,265,241.54,265,240.59,264.86Z" transform="translate(-232.67 -222.39)"/></svg>