<svg id="studios" xmlns="http://www.w3.org/2000/svg" viewBox="0 0 106.45 144.86"><defs><style>.cls-1{fill:#fff;}.cls-2{fill:#154f4f;}.cls-3{fill:#cb251b;}.cls-4{fill:#1c8986;}.cls-5{fill:#cc281e;}.cls-6{fill:#cd2c22;}.cls-7{fill:#cd2920;}.cls-8{fill:#155050;}.cls-9{fill:#1d8a87;}</style></defs><title>ided-studios-logo</title><rect class="cls-1" x="2.69" y="33.29" width="15.48" height="44.26"/><path class="cls-2" d="M339.12,83.68c-.45.54-.26,1.22-.34,1.82A47.49,47.49,0,0,1,304,125.68a52.3,52.3,0,0,1-14.07,1.92H258.22c-2,0-2.65-.42-3.11-1.92V42.11q0-4.06,0-8.15c.63-1.77,1.32-2.3,3.17-2.3,10.92,0,21.85-.4,32.75.09,20.41.92,35.47,10.44,44.21,29.2a36,36,0,0,1,3.43,13.28,4,4,0,0,0,.47,1.77Zm-59.06-4v23.63c0,.56-.23,1.19.81,1.18a79.87,79.87,0,0,0,12.56-.66c13.36-2.2,23-13.8,20.38-28.84a24.4,24.4,0,0,0-20.2-19.72c-4.1-.72-8.22-.31-12.33-.47-1,0-1.25.25-1.25,1.24C280.08,64,280.06,71.85,280.06,79.73Z" transform="translate(-232.67 -0.16)"/><path class="cls-3" d="M245.28.16c.43.44,1,.3,1.55.44a11.19,11.19,0,0,1-3.2,22A11.18,11.18,0,0,1,241.77.42c.23,0,.49,0,.63-.26Z" transform="translate(-232.67 -0.16)"/><path class="cls-4" d="M255.09,34q0,4.08,0,8.15v83.56a3.07,3.07,0,0,1-3.29,2c-5.4-.06-10.8,0-16.19,0-2.11,0-2.81-.67-2.93-2.75,0-.52,0-1,0-1.56V36c0-.52,0-1,0-1.56a2.52,2.52,0,0,1,2.86-2.66c5.4,0,10.79,0,16.19,0A3.47,3.47,0,0,1,255.09,34ZM243.51,46.48c2,0,4.08,0,6.12,0,.93,0,1.17-.31,1.15-1.18-.05-2,0-3.92,0-5.88a4.38,4.38,0,0,0-7.1-3.52,1,1,0,0,1-1.34.09,4.11,4.11,0,0,0-5.89,3.53c-.06,2,0,4,0,6,0,.75.28,1,1,1C239.43,46.46,241.47,46.48,243.51,46.48Zm.14,64.32c1.95,0,3.91,0,5.87,0,.9,0,1.31-.22,1.29-1.2-.07-3,.3-2.59-2.61-2.64-1.07,0-2.44.45-3.13-.2s-.13-2.12-.28-3.22.33-1.22,1.23-1.18c1.24.07,2.48,0,3.72,0,.4,0,.93,0,1-.46a19.63,19.63,0,0,0,0-2.87c0-.42-.46-.49-.84-.49H237.31c-.58,0-.85.23-.92.84-.3,2.87-.22,3,2.61,3h.36c2.08,0,2.08,0,2.08,2.1,0,2.48,0,2.47-2.42,2.49-3,0-2.58-.46-2.63,2.73,0,.85.34,1.11,1.15,1.1C239.57,110.78,241.61,110.8,243.65,110.8Zm-.17-34.27h4.68c2.81,0,2.79,0,2.61-2.79,0-.66-.28-.92-.94-.9-1.2,0-2.41-.07-3.6,0s-1.58-.24-1.44-1.42-.33-2.5.22-3.12,2.1-.21,3.2-.23c2.7,0,2.68,0,2.56-2.74,0-.64-.19-.93-.89-.93q-6.3,0-12.59,0c-.69,0-.87.26-.89.92-.08,2.74-.1,2.74,2.65,2.74,2.38,0,2.38,0,2.38,2.34s0,2.39-2.44,2.43c-3,0-2.51-.57-2.59,2.71,0,.73.23,1,1,1C239.4,76.5,241.44,76.53,243.48,76.53Zm-2.19-15.18h0c1.28,0,2.56,0,3.84,0,2.82-.1,4.64-1.41,5.31-3.82a8.19,8.19,0,0,0,0-4.5,4.76,4.76,0,0,0-4.36-3.69,63.86,63.86,0,0,0-7.19-.12c-3,0-2.4-.41-2.51,2.56,0,1,.34,1.21,1.25,1.19,2.4-.05,4.8,0,7.2,0a2.33,2.33,0,0,1,2.63,2.33c0,1.44-.92,2.29-2.61,2.31-1.92,0-3.84,0-5.76,0-3.15,0-2.63-.63-2.69,2.84,0,.68.26.92.92.91C238.65,61.33,240,61.35,241.29,61.35Zm2.21,34.1c2,0,4.08,0,6.12,0,.88,0,1.2-.3,1.19-1.18,0-2.4,0-4.8,0-7.2s0-2.28-2.32-2.2c-.77,0-1.06.32-1,1.08,0,1.68,0,3.36,0,5,0,1-.61.84-1.2.83S245,92,245,91c0-1.2,0-2.4,0-3.6-.07-1.36-1.16-.73-1.83-.85s-1.09,0-1.05.86c.05,1.08-.06,2.17,0,3.24s-.37,1.18-1.25,1.18-1.24-.18-1.18-1.13c.08-1.15,0-2.31,0-3.47,0-2.22,0-2.19-2.26-2.15-.83,0-1.12.32-1.11,1.14,0,2.72,0,5.44,0,8.15,0,.88.33,1.08,1.13,1.06C239.51,95.42,241.51,95.45,243.5,95.45Zm-7.1,23.29v3.72c0,2-.22,1.78,1.8,1.79,1.56,0,1.56,0,1.56-1.55a6.14,6.14,0,0,0,0-1c-.13-.94.31-1.14,1.17-1.12,2.44,0,4.88,0,7.31,0,2.86,0,2.51.38,2.58-2.55,0-1-.38-1.3-1.34-1.28-2.76,0-5.52,0-8.28,0-1.15,0-1.5-.3-1.46-1.46.08-2.36.28-2.14-2.16-2.21-1,0-1.22.36-1.18,1.25C236.45,115.86,236.4,117.3,236.4,118.74Z" transform="translate(-232.67 -0.16)"/><path class="cls-5" d="M261.81,137v-1.42c0-1.43.61-1.87,2-1.49.47.13.49.46.49.83,0,3,0,6.07,0,9.11,0,.82-1.3,1.2-2.1.59-.25-.19-.31-.44-.75-.24a3.89,3.89,0,0,1-5.69-4.14C256.09,137.1,258.77,135.59,261.81,137Zm.19,3.8a2.09,2.09,0,0,0-1.94-2.16,1.94,1.94,0,0,0-2,2,1.9,1.9,0,0,0,1.76,2.13A2,2,0,0,0,262,140.8Z" transform="translate(-232.67 -0.16)"/><path class="cls-6" d="M252.23,143.91c-1.23,1-2.47,1.46-3.86.79a3.36,3.36,0,0,1-1.8-3.28c0-1.31,0-2.63,0-3.95,0-1.1.67-.93,1.35-1s1.21.12,1.16,1c-.06,1.16,0,2.31,0,3.47,0,.92.36,1.63,1.35,1.63A1.41,1.41,0,0,0,251.9,141c0-1.2,0-2.4,0-3.6s.75-.88,1.4-.91,1.16,0,1.14.92c-.05,2,0,4.07,0,6.1,0,.47.29,1.15-.45,1.3S252.47,145,252.23,143.91Z" transform="translate(-232.67 -0.16)"/><path class="cls-7" d="M278.43,140.63a4.27,4.27,0,1,1-4.27-4.27A4.28,4.28,0,0,1,278.43,140.63Zm-6.11.12a1.79,1.79,0,0,0,1.79,2,1.81,1.81,0,0,0,1.87-2,1.84,1.84,0,1,0-3.66.05Z" transform="translate(-232.67 -0.16)"/><path class="cls-7" d="M282.56,145a3.69,3.69,0,0,1-2.46-.79c-.39-.32-1.07-.65-.5-1.32.43-.52.87-1.27,1.69-.42a1.61,1.61,0,0,0,.75.34c.49.12,1.08.15,1.24-.38s-.43-.64-.84-.77a5.1,5.1,0,0,1-1.92-.92,2.4,2.4,0,0,1,.69-4.1,3.51,3.51,0,0,1,3.81.58c.25.22.7.53.27.86s-.63,1.12-1.41.78c-.22-.09-.39-.28-.61-.36-.38-.15-.89-.25-1.06.19s.35.55.7.66c1.18.38,2.42.71,2.85,2.09C286.35,143.36,284.86,145,282.56,145Z" transform="translate(-232.67 -0.16)"/><path class="cls-7" d="M236.31,145a4,4,0,0,1-2.37-.71c-1-.69-1-1.1-.1-1.92.37-.33.63-.4,1,0a1.86,1.86,0,0,0,.61.36c.58.24,1.33.41,1.57-.26s-.61-.63-1-.85l-.11,0c-1.31-.38-2.35-1.05-2.45-2.57a2.21,2.21,0,0,1,1.41-2.29,3.65,3.65,0,0,1,3.92.54c.21.21.77.47.33.83s-.65,1.09-1.42.82c-.18-.07-.33-.22-.51-.3-.41-.19-1-.38-1.16.1s.38.59.78.71c2.11.64,2.81,1.38,2.8,2.89S238.29,145,236.31,145Z" transform="translate(-232.67 -0.16)"/><path class="cls-6" d="M241.52,141.66v-1.8c0-.5.12-1-.71-1.05s-.48-.8-.5-1.29,0-.94.58-1c.44,0,.61-.16.65-.63a2,2,0,0,1,2-1.61c.7.08.44.64.47,1,0,.59-.21,1.27.87,1.24.67,0,.49.7.5,1.15s.14,1.12-.55,1.1c-.87,0-.83.46-.82,1.05,0,1.35,0,2.71,0,4.06,0,1-.63.91-1.28.92s-1.32.08-1.27-.92c0-.76,0-1.52,0-2.27Z" transform="translate(-232.67 -0.16)"/><path class="cls-6" d="M268.56,140.64c0,1.12,0,2.24,0,3.35,0,.95-.62.87-1.22.85s-1.36.21-1.36-.83c0-2.23,0-4.46,0-6.69,0-1,.78-.77,1.38-.8s1.21,0,1.19.9C268.53,138.49,268.56,139.57,268.56,140.64Z" transform="translate(-232.67 -0.16)"/><path class="cls-6" d="M267.37,133.26c.94-.18,1.2.24,1.22,1.18,0,1.19-.65,1.08-1.45,1.15-1.06.08-1.14-.45-1.17-1.29C265.92,133.17,266.58,133.18,267.37,133.26Z" transform="translate(-232.67 -0.16)"/><path class="cls-8" d="M243.65,110.8c-2,0-4.08,0-6.11,0-.81,0-1.16-.25-1.15-1.1.05-3.19-.32-2.71,2.63-2.73,2.42,0,2.42,0,2.42-2.49,0-2.1,0-2.1-2.08-2.1H239c-2.83,0-2.91-.11-2.61-3,.07-.61.34-.84.92-.84h12.58c.38,0,.82.07.84.49a19.63,19.63,0,0,1,0,2.87c-.05.49-.58.46-1,.46-1.24,0-2.48,0-3.72,0-.9,0-1.36.18-1.23,1.18s-.48,2.51.28,3.22,2.06.18,3.13.2c2.91,0,2.54-.4,2.61,2.64,0,1-.39,1.23-1.29,1.2C247.56,110.77,245.6,110.8,243.65,110.8Z" transform="translate(-232.67 -0.16)"/><path class="cls-8" d="M243.5,95.45c-2,0-4,0-6,0-.8,0-1.14-.18-1.13-1.06.05-2.71,0-5.43,0-8.15,0-.82.28-1.12,1.11-1.14,2.26,0,2.26-.07,2.26,2.15,0,1.16.06,2.32,0,3.47-.06,1,.33,1.13,1.18,1.13s1.34-.16,1.25-1.18,0-2.16,0-3.24c0-.81.41-1,1.05-.86s1.76-.51,1.83.85c0,1.2,0,2.4,0,3.6,0,1,.67.78,1.23.8s1.23.15,1.2-.83c0-1.68,0-3.36,0-5,0-.76.27-1.06,1-1.08,2.32-.08,2.32-.11,2.32,2.2s0,4.8,0,7.2c0,.88-.31,1.2-1.19,1.18C247.58,95.42,245.54,95.45,243.5,95.45Z" transform="translate(-232.67 -0.16)"/><path class="cls-8" d="M236.4,118.74c0-1.44,0-2.88,0-4.32,0-.89.16-1.29,1.18-1.25,2.44.07,2.24-.15,2.16,2.21,0,1.16.31,1.5,1.46,1.46,2.76-.08,5.52,0,8.28,0,1,0,1.37.25,1.34,1.28-.07,2.93.28,2.54-2.58,2.55-2.43,0-4.87,0-7.31,0-.86,0-1.3.18-1.17,1.12a6.14,6.14,0,0,1,0,1c0,1.55,0,1.56-1.56,1.55-2,0-1.78.2-1.8-1.79Z" transform="translate(-232.67 -0.16)"/><path class="cls-9" d="M247.88,41.32c-.13.42.29,1.21-.27,1.34a4.15,4.15,0,0,1-2.68,0c-.7-.38-.23-1.53-.26-2.34a1.43,1.43,0,0,1,1.09-1.42,1.56,1.56,0,0,1,1.74.46C248,39.89,247.84,40.6,247.88,41.32Z" transform="translate(-232.67 -0.16)"/><path class="cls-9" d="M240.41,42.76c-1.24.34-1.16-.53-1.14-1.43,0-1.42.47-2.08,1.43-2.06s1.31.72,1.43,2.35C242.23,43.05,241.33,42.77,240.41,42.76Z" transform="translate(-232.67 -0.16)"/></svg>