<svg id="marketplace" xmlns="http://www.w3.org/2000/svg" viewBox="0 0 106.46 147.21"><defs><style>.cls-1{fill:#fff;}.cls-2{fill:#164f4f;}.cls-3{fill:#1d8a87;}.cls-4{fill:#cb251b;}.cls-5{fill:#cd2c22;}.cls-6{fill:#cc281e;}.cls-7{fill:#cd2920;}.cls-8{fill:#155050;}</style></defs><title>ided-marketplace-logo</title><rect class="cls-1" x="3.73" y="34.72" width="14.35" height="41.63"/><path class="cls-2" d="M40.08,256c.51-1.6,1.22-2.17,2.86-2.17,11.28,0,22.57-.18,33.84.06a48.61,48.61,0,0,1,46,37.14,47.51,47.51,0,0,1-32.48,56.37,53.12,53.12,0,0,1-15.68,2.36q-15.66,0-31.32,0c-2,0-2.84-.48-3.26-1.91a15.64,15.64,0,0,1-.21-3.68v-85A12.27,12.27,0,0,1,40.08,256ZM65,301.86c0,7.92,0,15.83,0,23.74,0,.82.18,1.09,1.05,1.08,3.35,0,6.7,0,10.06-.32,14.73-1.2,24.56-13.13,22.87-27.82A24.71,24.71,0,0,0,77.5,277.32c-3.79-.42-7.59-.12-11.38-.27-1,0-1.17.27-1.17,1.19C65,286.11,65,294,65,301.86Z" transform="translate(-17.61 -222.39)"/><path class="cls-3" d="M40.08,256a12.27,12.27,0,0,0-.22,3.2v85a15.64,15.64,0,0,0,.21,3.68c-.74,1.61-2.08,1.94-3.71,1.93-5.16,0-10.31,0-15.47,0-2.54,0-3.27-.71-3.27-3.28q0-9.3,0-18.59,0-35,0-70c0-.52,0-1,0-1.56a2.42,2.42,0,0,1,2.68-2.45c5.48,0,11,0,16.43,0A3.84,3.84,0,0,1,40.08,256ZM28.53,268.65c2,0,4,0,6,0,.88,0,1.21-.24,1.19-1.15-.06-1.92,0-3.84,0-5.76a4.4,4.4,0,0,0-7.08-3.69,1.07,1.07,0,0,1-1.33.13,4.08,4.08,0,0,0-5.92,3.71c0,1.84,0,3.68,0,5.51,0,.93.24,1.28,1.21,1.25C24.53,268.6,26.53,268.65,28.53,268.65Zm0,52.15c-2,0-4.08,0-6.12,0-.87,0-1.08.3-1.08,1.11,0,2.53,0,2.53,2.53,2.53h.36c2.42,0,2.15-.19,2.16,2.21,0,2.58,0,2.57-2.57,2.58-2.75,0-2.41-.35-2.48,2.52,0,1,.31,1.33,1.31,1.32,3.52,0,7,0,10.56,0,2.85,0,2.48.39,2.56-2.56,0-1-.4-1.32-1.36-1.28-1.23.06-2.47,0-3.71,0-.63,0-1-.14-.95-.86.05-1,0-2.08,0-3.12,0-.64.25-.85.86-.83.92,0,1.84,0,2.76,0,2.59,0,2.34.38,2.39-2.49,0-.92-.38-1.16-1.23-1.15C32.53,320.83,30.53,320.8,28.54,320.8Zm-.05-22.07c1.56,0,3.11,0,4.67,0,2.92-.06,2.47.61,2.54-2.63,0-.76-.23-1.08-1-1-1.36,0-2.72,0-4.08,0-.6,0-.87-.13-.84-.79.05-1.08,0-2.16,0-3.24,0-.59.2-.75.76-.74,1.4,0,2.8,0,4.2,0,.3,0,.76.11.84-.26a8,8,0,0,0,0-3.19c0-.31-.42-.31-.71-.31H22.16c-.53,0-.76.21-.82.77-.31,2.93-.27,3,2.66,3h.12c2.25,0,2.25,0,2.25,2.25,0,2.5,0,2.47-2.5,2.51-2.93,0-2.46-.56-2.53,2.64,0,.77.25,1.05,1,1C24.41,298.7,26.45,298.73,28.49,298.73Zm-1.78-27.35h-2.8c-3,.06-2.49-.52-2.58,2.61,0,.92.32,1.18,1.19,1.16,2.43,0,4.87,0,7.31,0a2.38,2.38,0,0,1,2.25,1.1A2.29,2.29,0,0,1,30,279.75c-2.52,0-5,0-7.56,0-.47,0-1.1-.09-1.06.61.07,1-.42,2.13.34,3.07.05.07.23.06.34.06,3.08-.06,6.17.25,9.22-.16a4.68,4.68,0,0,0,4.11-3.69,8.28,8.28,0,0,0,0-4.39,4.8,4.8,0,0,0-3.84-3.68C29.86,271.19,28.14,271.49,26.71,271.38Zm1.78,46.3c2,0,3.91-.06,5.87,0,1.15.05,1.44-.39,1.41-1.47-.07-2.27,0-4.55,0-6.83s0-2.33-2.34-2.31c-.77,0-1.06.24-1,1,0,1.6,0,3.2,0,4.79,0,.87-.38,1.14-1.15,1.14s-1.34-.16-1.27-1.13c.05-.76,0-1.52,0-2.28,0-1.93-.07-2-2-1.87-.62,0-.86.23-.84.85,0,1.12,0,2.24,0,3.35s-.5,1.09-1.28,1.1-1.2-.12-1.14-1c.07-1.11,0-2.24,0-3.35,0-2.44,0-2.42-2.41-2.35-.74,0-1,.27-1,1,0,2.72.05,5.44,0,8.15,0,1,.36,1.25,1.27,1.23C24.57,317.65,26.53,317.68,28.49,317.68Zm-7.13,23.14c0,1.56,0,3.11,0,4.67,0,.69.16,1,.93,1,2.81,0,2.41.18,2.43-2.32a1.92,1.92,0,0,0,0-.24c-.12-.85.25-1.11,1.08-1.09,2.48,0,4.95,0,7.43,0s2.53,0,2.55-2.57c0-1-.41-1.29-1.36-1.27-2.24.05-4.48,0-6.71,0-.95,0-2.11.41-2.78-.21s-.18-1.67-.19-2.54c0-.71-.33-1-1-1.06-.44,0-.88,0-1.32,0-.76,0-1.09.28-1.07,1.05C21.38,337.78,21.36,339.3,21.36,340.82Z" transform="translate(-17.61 -222.39)"/><path class="cls-4" d="M40,233.54a11.17,11.17,0,1,1-11.23-11.15A11.11,11.11,0,0,1,40,233.54Z" transform="translate(-17.61 -222.39)"/><path class="cls-5" d="M18.41,362.84c0-1,0-2,0-3,0-.4-.19-1,.44-1.07s1.14-.3,1.43.26.46.39.85.12a2.71,2.71,0,0,1,3.6.21c.36.3.52.32.88,0a3,3,0,0,1,3.46-.47,3.32,3.32,0,0,1,1.63,3.13c0,1.36,0,2.72,0,4.07,0,1-.57,1-1.24,1s-1.29.09-1.22-.94c.07-1.19,0-2.4,0-3.6,0-.84-.27-1.58-1.23-1.57s-1.23.73-1.22,1.59c0,1.2,0,2.4,0,3.6,0,1-.61.91-1.28.92s-1.27,0-1.23-1c.06-1.23,0-2.48,0-3.71,0-.77-.27-1.41-1.11-1.43a1.27,1.27,0,0,0-1.31,1.41c0,1.24-.06,2.48,0,3.72.05,1.09-.66.95-1.35,1s-1.24-.06-1.19-1S18.41,363.92,18.41,362.84Z" transform="translate(-17.61 -222.39)"/><path class="cls-6" d="M75.84,366.29a13.78,13.78,0,0,0,0,1.94c.18,1.2-.4,1.39-1.43,1.37-.84,0-1.1-.3-1.09-1.12,0-2.8,0-5.59,0-8.39,0-.49-.3-1.21.58-1.32.71-.1,1.37,0,1.55.85,0,.06.12.1.19.14a3.35,3.35,0,0,1,5-.08,4.59,4.59,0,0,1,.34,6.1A3.55,3.55,0,0,1,75.84,366.29Zm1.86-5.41a2.14,2.14,0,0,0-2.08,2,2.17,2.17,0,0,0,2.09,2,2,2,0,0,0,1.89-2A2,2,0,0,0,77.7,360.88Z" transform="translate(-17.61 -222.39)"/><path class="cls-6" d="M95.85,362.89c0,1,0,1.92,0,2.88,0,.44.24,1.09-.38,1.24s-1.34.36-1.79-.21c-.29-.35-.37-.33-.72-.14a3.8,3.8,0,0,1-5.24-1.48,4.39,4.39,0,0,1,1.13-5.77,3.54,3.54,0,0,1,4.32-.13c.26.17.47.51.69,0,.32-.78,1-.49,1.57-.42s.42.68.43,1.09C95.87,360.9,95.85,361.89,95.85,362.89Zm-6.38.09a1.85,1.85,0,0,0,1.91,2,2,2,0,0,0-.14-4.08A1.86,1.86,0,0,0,89.47,363Z" transform="translate(-17.61 -222.39)"/><path class="cls-7" d="M38.59,359.65c.16-1,.91-1,1.63-.87s.54.87.54,1.37c0,1.88,0,3.76,0,5.63,0,.45.2,1.1-.41,1.23s-1.28.33-1.8-.21c-.18-.19-.19-.42-.6-.23-2.07,1-3.58.72-4.92-.8a4.44,4.44,0,0,1-.37-5.23C34,358.43,36.44,358.05,38.59,359.65Zm-2.35,1.24a2,2,0,0,0-.07,4.06,2,2,0,0,0,.07-4.06Z" transform="translate(-17.61 -222.39)"/><path class="cls-7" d="M52.33,361.51a11.62,11.62,0,0,0,1.48-1.62c.73-1.21,1.85-1.21,3-1.14.62,0,.71.3.31.74a14.3,14.3,0,0,1-1.67,1.72c-.86.67-.68,1.22-.06,1.93.81.93,1.55,1.94,2.3,2.92.18.24.5.47.32.83s-.5.13-.76.19c-1.76.46-2.43-.83-3.23-2-.31-.44-.5-1.31-1.17-1.11s-.52,1.07-.52,1.69A1.38,1.38,0,0,1,50.25,367c-.37-.16-.39-.47-.39-.79,0-3,0-6.08,0-9.11,0-1.12.77-.76,1.34-.81s1.19,0,1.16.89C52.29,358.52,52.33,359.84,52.33,361.51Z" transform="translate(-17.61 -222.39)"/><path class="cls-7" d="M61.25,363.73c.59,1.43,1.62,1.84,3,1,.93-.55,1.33-.08,1.74.53.51.76-.26,1-.66,1.25a4.32,4.32,0,0,1-6.24-5.35,4.05,4.05,0,0,1,7.72.67c.33,1.56.08,1.87-1.49,1.88Zm.1-2h3.11C63.37,360.27,62.47,360.26,61.35,361.74Z" transform="translate(-17.61 -222.39)"/><path class="cls-7" d="M110.31,363.73h-2c-.19,0-.43-.07-.52.16a.57.57,0,0,0,.21.64,2.06,2.06,0,0,0,2.74.21c.77-.5,1.12-.14,1.58.38s.3.73-.11,1.1a4.34,4.34,0,0,1-6.16-.75,4.27,4.27,0,0,1,1.07-6.18,4,4,0,0,1,5.69,1.42,4.36,4.36,0,0,1,.33.77c.57,1.77.23,2.24-1.6,2.25Zm-2.48-2h3C109.8,360.24,108.66,360.26,107.83,361.75Z" transform="translate(-17.61 -222.39)"/><path class="cls-7" d="M97.12,362.82a4.12,4.12,0,0,1,2.34-3.74,4,4,0,0,1,4,.07c.5.29.88.6.42,1.21s-.44,1.4-1.46.81a1.75,1.75,0,0,0-2.47.42,2.1,2.1,0,0,0-.06,2.58,1.76,1.76,0,0,0,2.54.47c1.08-.59,1.16.47,1.54.95.5.63-.15.85-.52,1.06a4,4,0,0,1-4.1.05A4.2,4.2,0,0,1,97.12,362.82Z" transform="translate(-17.61 -222.39)"/><path class="cls-5" d="M69.4,367.09c-.84.15-1.21-.22-1.16-1.19s0-2.24,0-3.35c0-.65.29-1.4-.84-1.61-.58-.11-.26-.9-.31-1.39s0-.75.53-.78.67,0,.61-.51c-.19-1.53,1.11-1.46,2-1.71s.59.54.6,1c0,.66-.17,1.3.93,1.32.7,0,.43.81.48,1.29s-.07,1-.65.93c-.81,0-.76.43-.76,1,0,1.24,0,2.48,0,3.72S70.81,367.09,69.4,367.09Z" transform="translate(-17.61 -222.39)"/><path class="cls-6" d="M44.45,359.77c1.56-1.41,2.75-1.44,4-.43.7.55.21,1,0,1.42s-.52.83-1.2.5c-1.61-.78-2.38-.26-2.38,1.55,0,1.11-.05,2.23,0,3.34s-.57,1-1.24,1-1.3.12-1.27-.9c0-2,0-4.07,0-6.1,0-.49-.3-1.23.58-1.33C43.65,358.7,44.41,358.59,44.45,359.77Z" transform="translate(-17.61 -222.39)"/><path class="cls-7" d="M85.77,361.7c0,1.44,0,2.88,0,4.31,0,1-.41,1.12-1.23,1.09s-1.31,0-1.29-1q.09-4.36,0-8.73c0-1,.56-1,1.29-1s1.27.13,1.23,1.1C85.72,358.83,85.77,360.27,85.77,361.7Z" transform="translate(-17.61 -222.39)"/><path class="cls-8" d="M28.54,320.8c2,0,4,0,6,0,.85,0,1.25.23,1.23,1.15,0,2.87.2,2.46-2.39,2.49-.92,0-1.84,0-2.76,0-.61,0-.88.19-.86.83,0,1,.05,2.08,0,3.12,0,.72.32.87.95.86,1.24,0,2.48,0,3.71,0,1,0,1.38.24,1.36,1.28-.08,2.95.29,2.55-2.56,2.56-3.52,0-7,0-10.56,0-1,0-1.34-.32-1.31-1.32.07-2.87-.27-2.51,2.48-2.52,2.57,0,2.58,0,2.57-2.58,0-2.4.26-2.21-2.16-2.21h-.36c-2.57,0-2.54,0-2.53-2.53,0-.81.21-1.13,1.08-1.11C24.46,320.84,26.5,320.8,28.54,320.8Z" transform="translate(-17.61 -222.39)"/><path class="cls-8" d="M28.49,317.68c-2,0-3.92,0-5.88,0-.91,0-1.29-.26-1.27-1.23.05-2.71,0-5.43,0-8.15,0-.71.22-1,1-1,2.41-.07,2.41-.09,2.41,2.35,0,1.11.06,2.24,0,3.35-.06.92.38,1,1.14,1s1.33-.11,1.28-1.1,0-2.23,0-3.35c0-.62.22-.82.84-.85,2-.1,2-.06,2,1.87,0,.76,0,1.52,0,2.28-.07,1,.51,1.13,1.27,1.13s1.18-.27,1.15-1.14c0-1.59,0-3.19,0-4.79,0-.79.26-1,1-1,2.34,0,2.34-.05,2.34,2.31s0,4.56,0,6.83c0,1.08-.26,1.52-1.41,1.47C32.4,317.62,30.44,317.68,28.49,317.68Z" transform="translate(-17.61 -222.39)"/><path class="cls-8" d="M21.36,340.82c0-1.52,0-3,0-4.56,0-.77.31-1.1,1.07-1.05.44,0,.88,0,1.32,0,.66,0,1,.35,1,1.06,0,.87-.4,2,.19,2.54s1.83.19,2.78.21c2.23,0,4.47,0,6.71,0,1,0,1.37.23,1.36,1.27,0,2.57,0,2.57-2.55,2.57s-4.95,0-7.43,0c-.83,0-1.2.24-1.08,1.09a1.92,1.92,0,0,1,0,.24c0,2.5.38,2.28-2.43,2.32-.77,0-1-.32-.93-1C21.38,343.93,21.36,342.38,21.36,340.82Z" transform="translate(-17.61 -222.39)"/><path class="cls-3" d="M31.07,264.87c-1.12.28-1.66-.05-1.55-1.42.13-1.77.52-2.5,1.71-2.48s1.47.74,1.63,2.55C33,265.08,32.15,265,31.07,264.87Z" transform="translate(-17.61 -222.39)"/><path class="cls-3" d="M25.53,264.85c-1.2.36-1.37-.28-1.32-1.29.07-1.47.4-2.06,1.36-2.08s1.29.59,1.4,2.15C27.05,264.83,26.58,265.12,25.53,264.85Z" transform="translate(-17.61 -222.39)"/></svg>