<svg id="Layer_1" data-name="Layer 1" xmlns="http://www.w3.org/2000/svg" viewBox="0 0 299.96 359.46"><defs><style>.cls-1{fill:#154f4f;}.cls-2{fill:#1d8986;}.cls-3{fill:#cc251b;}</style></defs><title>ided-logo</title><path class="cls-1" d="M128.63,102.18c.67-3.43,2.92-5.11,6.21-5.63a12.33,12.33,0,0,1,1.92-.16c31.88,0,63.78-.62,95.63.3,64.36,1.86,118.59,48.05,130.35,110,12.9,68-26.9,133.69-93.21,153.85A151,151,0,0,1,225.66,367q-43.78.06-87.56,0a17,17,0,0,1-5.72-.79c-2-.7-3.64-1.87-3.81-4.28-.75-4.58-.49-9.2-.49-13.81q0-118,0-236C128.08,108.79,127.87,105.45,128.63,102.18Zm70,129.4c0,22.39,0,44.79-.06,67.19,0,2.4.58,3.05,3,3,10.23,0,20.44-.22,30.64-1.18,35.37-3.35,61.7-31.33,62.69-66.79,1-35.89-24.41-65.93-60-71.07-10.83-1.56-21.71-.68-32.56-1.05-2.85-.09-3.79.55-3.77,3.63C198.67,187.43,198.6,209.5,198.6,231.58Z" transform="translate(-65.19 -7.63)"/><path class="cls-2" d="M128.63,102.18c-.76,3.27-.55,6.61-.55,9.92q0,118,0,236.05c0,4.61-.26,9.23.49,13.81-2.74,4.82-7.21,5.18-12.15,5.12C102.21,366.92,88,367,73.79,367c-6.37,0-8.59-2.18-8.59-8.49q0-126.6,0-253.19c0-6.35,2.41-8.77,8.8-8.79,14.53,0,29.06.06,43.59,0,4.47,0,8,1.19,10.21,5.33C127.9,102,128.35,102.07,128.63,102.18ZM96,138.19c5.59,0,11.2-.1,16.79.05,2.45.06,3.5-.54,3.42-3.22-.18-5.59,0-11.19-.06-16.79a12,12,0,0,0-7.08-11.4c-4.6-2.26-9-1.56-13,1.46a2.8,2.8,0,0,1-3.58.36,11.57,11.57,0,0,0-16.81,9.89c-.21,5.69,0,11.41-.08,17.11,0,2,.76,2.6,2.68,2.57C84.19,138.13,90.12,138.19,96,138.19ZM95.81,223c4.31,0,8.62.08,12.93,0,8.75-.2,7.25,1.88,7.47-7.75.05-2.13-.82-2.83-2.88-2.77-3.87.11-7.76,0-11.63.06-1.62,0-2.34-.37-2.27-2.14.12-3,.12-6,0-9-.06-1.73.58-2.25,2.24-2.17,2.37.12,4.74.08,7.11,0,8.61-.2,7.24,1.76,7.43-7.86.05-2.19-.93-2.72-2.93-2.71q-17.44.09-34.89,0c-2.12,0-2.85.7-2.79,2.8.24,9.47-1.36,7.63,7.47,7.77,6.65.1,6.65,0,6.65,6.79,0,6.53,0,6.45-6.57,6.55-8.86.13-7.32-1.66-7.55,7.71-.06,2.09.64,2.85,2.76,2.82C84.18,222.93,90,223,95.81,223Zm-.2,96.3h12.6c8,0,7.92,0,7.63-7.89-.07-2.08-.91-2.53-2.75-2.49-3.65.09-7.32-.06-11,.06-2,.07-2.68-.65-2.59-2.61.12-2.9.09-5.81,0-8.72-.05-1.65.57-2.33,2.26-2.27,2.25.09,4.51,0,6.78,0,7.64,0,7.59,0,7.25-7.62-.09-1.88-.7-2.76-2.66-2.75q-17.43,0-34.87,0c-2,0-2.56.87-2.65,2.74-.36,7.63-.41,7.63,7.25,7.63,7,0,7,0,7,6.87,0,6.68,0,6.62-6.84,6.69-8.39.08-7.2-1.37-7.39,7.68,0,2.2.84,2.73,2.86,2.7C84.2,319.24,89.91,319.3,95.61,319.3ZM90,145.87H82.93c-7.4,0-7.29,0-7.37,7.29,0,2.61.79,3.29,3.32,3.24,7-.16,14-.18,21,0,4.5.14,7.07,3,6.89,6.9s-2.68,6.08-7.21,6.12c-5.5.05-11-.05-16.48,0-8.67.12-7.24-1.48-7.51,7.5-.08,2.68,1,3.28,3.4,3.23,6.68-.14,13.36,0,20-.06,10.86-.08,16.75-5.83,17.16-16.68s-5.63-17.34-16.44-17.58C96.5,145.81,93.27,145.87,90,145.87Zm5.77,130.7c5.49,0,11-.1,16.46,0,2.63.07,3.64-.75,3.57-3.49-.15-6.67,0-13.35-.07-20-.1-7.15,1.55-6.13-6.61-6.3-2.11,0-2.51.91-2.48,2.73.07,4.74-.09,9.48.07,14.21.08,2.44-1.22,2.63-3,2.47s-4.18.75-4.12-2.5c0-2.47,0-4.95,0-7.42,0-5.08,0-5-5.09-5-2.15,0-2.83.74-2.74,2.82.14,3.12-.11,6.25.08,9.36.16,2.51-1.09,2.87-3.11,2.72-1.85-.15-4.1.55-4-2.65s.08-6.67,0-10c-.15-7,1.43-6-6.47-6.12-1.92,0-2.67.56-2.64,2.57q.12,11.78,0,23.57c0,2.25.83,3,3,3C84.4,276.51,90.1,276.57,95.81,276.57Zm4.42,70.51h8.06c7.77,0,7.69,0,7.55-7.66,0-2.15-.77-2.76-2.83-2.74-8,.09-15.91,0-23.87,0-4.36,0-4.31,0-4.38-4.3-.11-7,1.25-5.93-6.15-6.13-2.23-.06-3,.63-3,2.92.12,7.85.05,15.7.05,23.54,0,4.7,0,4.7,4.65,4.7,4.44,0,4.44,0,4.44-4.58a31.62,31.62,0,0,0,0-3.23c-.19-2,.6-2.65,2.58-2.6C91.62,347.16,95.93,347.08,100.23,347.08Z" transform="translate(-65.19 -7.63)"/><path class="cls-3" d="M128.16,39.31A31.49,31.49,0,1,1,96.69,7.63,31.56,31.56,0,0,1,128.16,39.31Z" transform="translate(-65.19 -7.63)"/><path class="cls-1" d="M95.61,319.3c-5.7,0-11.41-.06-17.11,0-2,0-2.9-.5-2.86-2.7.19-9.05-1-7.6,7.39-7.68,6.84-.07,6.84,0,6.84-6.69,0-6.87,0-6.87-7-6.87-7.66,0-7.61,0-7.25-7.63.09-1.87.69-2.75,2.65-2.74q17.45.06,34.87,0c2,0,2.57.87,2.66,2.75.34,7.62.39,7.62-7.25,7.62-2.27,0-4.53.07-6.78,0-1.69-.06-2.31.62-2.26,2.27.08,2.91.11,5.82,0,8.72-.09,2,.6,2.68,2.59,2.61,3.65-.12,7.32,0,11-.06,1.84,0,2.68.41,2.75,2.49.29,7.89.36,7.89-7.63,7.89Z" transform="translate(-65.19 -7.63)"/><path class="cls-1" d="M95.81,276.57c-5.71,0-11.41-.06-17.12,0-2.21,0-3.07-.76-3-3q.12-11.79,0-23.57c0-2,.72-2.61,2.64-2.57,7.9.16,6.32-.86,6.47,6.12.07,3.34.09,6.68,0,10s2.15,2.5,4,2.65c2,.15,3.27-.21,3.11-2.72-.19-3.11.06-6.24-.08-9.36-.09-2.08.59-2.81,2.74-2.82,5.09,0,5.09-.12,5.09,5,0,2.47,0,4.95,0,7.42-.06,3.25,2.34,2.35,4.12,2.5s3.1,0,3-2.47c-.16-4.73,0-9.47-.07-14.21,0-1.82.37-2.77,2.48-2.73,8.16.17,6.51-.85,6.61,6.3.1,6.67-.08,13.35.07,20,.07,2.74-.94,3.56-3.57,3.49C106.79,276.47,101.3,276.57,95.81,276.57Z" transform="translate(-65.19 -7.63)"/><path class="cls-1" d="M100.23,347.08c-4.3,0-8.61.08-12.9,0-2-.05-2.77.64-2.58,2.6a31.62,31.62,0,0,1,0,3.23c0,4.58,0,4.58-4.44,4.58-4.65,0-4.65,0-4.65-4.7,0-7.84.07-15.69-.05-23.54,0-2.29.75-3,3-2.92,7.4.2,6-.83,6.15,6.13.07,4.3,0,4.3,4.38,4.3,8,0,15.91,0,23.87,0,2.06,0,2.79.59,2.83,2.74.14,7.66.22,7.66-7.55,7.66Z" transform="translate(-65.19 -7.63)"/><path class="cls-2" d="M107.9,123.6c-.52,1.08,1,3.33-.79,3.73-2.45.53-5.12.07-7.69,0-.09,0-.24-.08-.25-.14a21.84,21.84,0,0,1,0-7.65c.38-1.9,2-2.79,3.76-3.06C106.26,116,107.9,118.32,107.9,123.6Z" transform="translate(-65.19 -7.63)"/><path class="cls-2" d="M91.4,123.76c-.24,1.07.65,3.07-.49,3.4-2,.58-4.21.25-6.34.27-.17,0-.48-.2-.49-.33-.28-2.54-.81-5.14.46-7.52.86-1.62,2.52-1.9,4.22-1.46,2.76.72,2.68,3,2.64,5.16Z" transform="translate(-65.19 -7.63)"/></svg>